<?xml version="1.0" encoding="utf-8"?>
<!-- Generator: Adobe Illustrator 24.1.2, SVG Export Plug-In . SVG Version: 6.00 Build 0)  -->
<svg version="1.1" id="Warstwa_1" xmlns="http://www.w3.org/2000/svg" xmlns:xlink="http://www.w3.org/1999/xlink" x="0px" y="0px"
	 viewBox="0 0 430 430" style="enable-background:new 0 0 430 430;" xml:space="preserve">
<style type="text/css">
	.st0{fill:#121331;}
	.st1{fill:#08A88A;}
	.st2{fill-opacity:0;}
	.st3{fill:none;}
</style>
<g>
	<path class="st0" d="M406,174.68c-1.71,0-3.42-0.65-4.73-1.96c-102.71-102.71-269.83-102.71-372.55,0c-2.61,2.61-6.84,2.61-9.45,0
		c-2.61-2.61-2.61-6.84,0-9.45C71.55,110.99,141.06,82.2,215,82.2s143.45,28.79,195.73,81.07c2.61,2.61,2.61,6.84,0,9.45
		C409.42,174.03,407.71,174.68,406,174.68z"/>
	<path class="st0" d="M363.85,213.02c-1.71,0-3.42-0.65-4.73-1.96c-79.47-79.47-208.78-79.47-288.25,0c-2.61,2.61-6.84,2.61-9.45,0
		c-2.61-2.61-2.61-6.84,0-9.45c41.02-41.02,95.56-63.61,153.58-63.61s112.56,22.59,153.58,63.61c2.61,2.61,2.61,6.84,0,9.45
		C367.27,212.37,365.56,213.02,363.85,213.02z"/>
	<path class="st0" d="M322.79,250.26c-1.71,0-3.42-0.65-4.73-1.96c-56.83-56.83-149.29-56.83-206.12,0c-2.61,2.61-6.84,2.61-9.45,0
		c-2.61-2.61-2.61-6.84,0-9.45c62.04-62.04,162.98-62.04,225.02,0c2.61,2.61,2.61,6.84,0,9.45
		C326.21,249.61,324.5,250.26,322.79,250.26z"/>
	<path class="st1" d="M215,347.8c-25.77,0-46.74-20.97-46.74-46.74c0-25.77,20.97-46.73,46.74-46.73s46.74,20.96,46.74,46.73
		C261.74,326.83,240.77,347.8,215,347.8z M215,267.7c-18.4,0-33.37,14.97-33.37,33.36c0,18.4,14.97,33.37,33.37,33.37
		s33.37-14.97,33.37-33.37C248.37,282.66,233.4,267.7,215,267.7z"/>
</g>
</svg>
